<?xml version="1.0" encoding="utf-8"?>
<!-- Generator: Adobe Illustrator 27.0.0, SVG Export Plug-In . SVG Version: 6.00 Build 0)  -->
<svg version="1.1" id="Layer_1" xmlns="http://www.w3.org/2000/svg" xmlns:xlink="http://www.w3.org/1999/xlink" x="0px" y="0px"
	 viewBox="0 0 346 346" style="enable-background:new 0 0 346 346;" xml:space="preserve">
<style type="text/css">
	.st0{fill:url(#XMLID_00000041284005381739638980000010385336985741237918_);}
	
		.st1{clip-path:url(#SVGID_00000021804673147015165920000005189398702648233869_);fill:url(#SVGID_00000089569784316650065310000009415029514310452891_);stroke:#231F20;stroke-width:3.892;stroke-miterlimit:10;}
	
		.st2{clip-path:url(#SVGID_00000093172178591656622220000004215668802530462083_);fill:url(#SVGID_00000036209846449518147620000001685398524948001185_);stroke:#231F20;stroke-width:3.892;stroke-miterlimit:10;}
	.st3{clip-path:url(#SVGID_00000012432228795753876240000017811704073776669827_);}
	.st4{fill:#F1F1F2;}
	.st5{fill:none;stroke:#000000;stroke-width:12.7431;stroke-miterlimit:10;}
</style>
<g>
	<g>
		
			<radialGradient id="XMLID_00000180339264633429717020000003468653474364345264_" cx="173" cy="617" r="166.6" gradientTransform="matrix(1 0 0 1 0 -444)" gradientUnits="userSpaceOnUse">
			<stop  offset="0" style="stop-color:#FFFFFF"/>
			<stop  offset="3.364204e-02" style="stop-color:#E0F3F9"/>
			<stop  offset="7.018698e-02" style="stop-color:#C5E9F4"/>
			<stop  offset="0.1076" style="stop-color:#B2E2F0"/>
			<stop  offset="0.146" style="stop-color:#A7DDEE"/>
			<stop  offset="0.1868" style="stop-color:#A3DCED"/>
			<stop  offset="0.3171" style="stop-color:#A6DCE6"/>
			<stop  offset="0.6401" style="stop-color:#60B1C2"/>
			<stop  offset="1" style="stop-color:#005878"/>
		</radialGradient>
		
			<circle id="XMLID_1_" style="fill:url(#XMLID_00000180339264633429717020000003468653474364345264_);" cx="173" cy="173" r="166.6"/>
	</g>
	<g>
		<g>
			<defs>
				<circle id="SVGID_1_" cx="173" cy="173" r="166.6"/>
			</defs>
			<clipPath id="SVGID_00000124159965909794964710000013551692741796738234_">
				<use xlink:href="#SVGID_1_"  style="overflow:visible;"/>
			</clipPath>
			
				<linearGradient id="SVGID_00000051383306223045207830000012660756634899629493_" gradientUnits="userSpaceOnUse" x1="87.6" y1="936.8" x2="87.6" y2="545.9" gradientTransform="matrix(1 0 0 1 0 -444)">
				<stop  offset="0" style="stop-color:#43331B"/>
				<stop  offset="0.3526" style="stop-color:#45351C"/>
				<stop  offset="0.5243" style="stop-color:#4D3A20"/>
				<stop  offset="0.6569" style="stop-color:#5A4427"/>
				<stop  offset="0.7694" style="stop-color:#6C5230"/>
				<stop  offset="0.8692" style="stop-color:#85653D"/>
				<stop  offset="0.9587" style="stop-color:#A27B4C"/>
				<stop  offset="1" style="stop-color:#B28754"/>
			</linearGradient>
			
				<polygon style="clip-path:url(#SVGID_00000124159965909794964710000013551692741796738234_);fill:url(#SVGID_00000051383306223045207830000012660756634899629493_);stroke:#231F20;stroke-width:3.892;stroke-miterlimit:10;" points="
				-171.9,272 96.4,492.8 347.1,303.6 77.5,101.9 			"/>
		</g>
	</g>
	<g>
		<g>
			<defs>
				<circle id="SVGID_00000039834607249943070770000014002097145296890523_" cx="173" cy="173" r="166.6"/>
			</defs>
			<clipPath id="SVGID_00000083803865475338221600000010015121567293149830_">
				<use xlink:href="#SVGID_00000039834607249943070770000014002097145296890523_"  style="overflow:visible;"/>
			</clipPath>
			
				<linearGradient id="SVGID_00000123401804701193454580000010513658171956173954_" gradientUnits="userSpaceOnUse" x1="311.45" y1="983.2" x2="311.45" y2="592.3" gradientTransform="matrix(1 0 0 1 0 -444)">
				<stop  offset="0" style="stop-color:#43331B"/>
				<stop  offset="0.3526" style="stop-color:#45351C"/>
				<stop  offset="0.5243" style="stop-color:#4D3A20"/>
				<stop  offset="0.6569" style="stop-color:#5A4427"/>
				<stop  offset="0.7694" style="stop-color:#6C5230"/>
				<stop  offset="0.8692" style="stop-color:#85653D"/>
				<stop  offset="0.9587" style="stop-color:#A27B4C"/>
				<stop  offset="1" style="stop-color:#B28754"/>
			</linearGradient>
			
				<polygon style="clip-path:url(#SVGID_00000083803865475338221600000010015121567293149830_);fill:url(#SVGID_00000123401804701193454580000010513658171956173954_);stroke:#231F20;stroke-width:3.892;stroke-miterlimit:10;" points="
				51.9,318.4 320.2,539.2 571,350 301.4,148.3 			"/>
		</g>
	</g>
	<g>
		<g>
			<defs>
				<circle id="SVGID_00000158024298037471649920000000995901808030082232_" cx="173" cy="173" r="166.6"/>
			</defs>
			<clipPath id="SVGID_00000178199610303120844850000005041994363924243072_">
				<use xlink:href="#SVGID_00000158024298037471649920000000995901808030082232_"  style="overflow:visible;"/>
			</clipPath>
			<g style="clip-path:url(#SVGID_00000178199610303120844850000005041994363924243072_);">
				<g>
					<g>
						<path class="st4" d="M76.1,70.1l47.9-9.5l41.4,9.5l20.4,17.4l21,16.6l19.5,19.8l9.5,14.8l27.5,20.4c0,0,14.2,13.6,16.3,14.5
							c2.1,0.9,8.9,16,8.9,16l-5,18l-10.6,12.1l-16,2.4h-14.2l-20.4,56.5l-8.9-12.1l-8.6,8.9l-5-45.8l-3.3-16l-14.2-0.6l3.5,15.4
							l-9.2,8l-39,106.6c0,0-45.4-15.7-66.2-31.1s-45.7-51.7-45.7-51.7L133.5,131l14.8-22.5l10.3-17.4l-8-5.6L76.1,70.1z"/>
						<path d="M152.9,95.8c-3.2-3.4-7-6.1-11-8.2c-9.6-5-20-7.4-30.6-8.6c-15.4-1.7-30.8-1.2-46.1,1c-2.3,0.3-4.5-1-5.2-3
							c-0.8-2.3-0.1-4.8,2.2-5.7c6.6-2.8,13.2-5.6,20-7.8c15.4-5,31.2-7.3,47.4-6.3c21.9,1.3,41.4,8.8,57.5,24
							c3.7,3.5,7,7.5,10.6,11.2c0.7,0.7,1.5,1.3,2.4,1.8c12.1,6.5,22.8,14.7,30.3,26.3c1.9,2.9,3.5,6,4.6,9.2c1,3,2.8,5.1,5.3,6.8
							c9.3,6.8,18.6,13.6,27.8,20.5c6.9,5.2,13.4,10.8,18.6,17.8c2.7,3.6,4.9,7.5,5.3,12.1c0.9,9.2-1.8,17.5-6.9,25.1
							c-4.3,6.5-10,11.3-17.7,13.5c-4.7,1.3-9.3,0.4-13.9-0.3c-1.5-0.2-3.1-0.3-4.6-0.8c-1.9-0.6-3.1,0.3-3.7,1.8
							c-2,4.9-4.3,9.8-5.8,14.9c-2.7,8.5-5,17.1-7.3,25.7c-2.1,8-4,16.1-5.9,24.2c-0.8,3.2-2.5,4.7-5,4.6c-2.6-0.1-4.2-1.9-4.7-5.2
							c-0.8-4.8-1.6-9.6-2.4-14.4c0-0.2-0.1-0.5-0.3-1.1c-1.5,3.3-2.8,6.2-4.1,9.1c-1.4,2.9-3.8,4-6.4,3c-1.7-0.7-2.6-2.1-3-3.8
							c-1-4.5-2.3-9.1-2.8-13.7c-1.8-16.9-3.4-33.8-5-50.7c-0.3-3.3-0.4-3.4-4.1-3.2c1.1,3.9,2,7.8,3.2,11.7
							c1.4,4.6,0.3,6.7-4.5,7.7c-1.8,0.4-3.6,0.7-5.4,0.8c-1.3,0.1-1.8,0.6-2.2,1.8c-3.3,13.2-6.8,22.2-12.5,38.8
							c-0.8,2.1-17.1,45.9-24.1,63.1c-2.1,5.1-4.2,3.2-6,2.4c-7.2,0.1,29.2-90,33-104.7c0.2-0.6,0.3-1.3,0.5-2
							c-2.6-0.9-5.2-1.7-7.7-2.7c-6-2.3-11.2-5.9-15.9-10.3c-6.9-6.5-9.3-14.8-9.8-24c-0.7-11.5-1.2-23-2.1-34.4
							c-0.2-3.2-1.3-6.5-2.2-9.6c-0.7-2.5-0.1-5,2.1-6.1c2.2-1.2,5-0.5,6.4,1.7c2.2,3.6,2.8,7.6,3.1,11.6c0.8,11.3,1.3,22.7,2.2,34
							c0.4,4.5,0.9,9.1,2.5,13.2c2.1,5.7,6.9,9.2,11.9,12.3c6.4,3.9,14.2,5.9,20.4,5.2c-0.7-3-1.4-6-2-9
							c-2.7-13.3-1.9-26.5,2.3-39.4c1.4-4.4,1-8.1-1.8-11.7c-4.1-5.3-8-10.7-13.5-14.8c-2.2-1.6-2.7-4.4-1.3-6.7
							c1.3-2.1,4.3-3,6.4-1.4c2.7,2,5.3,4.2,7.5,6.8c3.8,4.6,7.5,9.4,10.8,14.4c2.9,4.2,3,9,1.5,13.8c-2.5,8.3-4.4,16.7-3.9,25.5
							c0,0.5,0.1,1.1,0.1,1.7c4.4,0.6,8.8,1.1,13.2,1.8c10.6,1.6,21.1,3.1,31.7,4.7c9.6,1.5,19.2,3.2,28.8,4.5
							c4.6,0.6,8.4-1.7,11.7-4.7c5.9-5.3,8.9-12.1,10-19.9c0.7-5.2-1.7-9.3-4.8-13.1c-4.7-5.8-10.4-10.5-16.3-14.9
							c-8.8-6.6-17.6-13-26.4-19.5c-1.9-1.4-3.8-2.9-5.5-4.5c-0.8-0.7-1.5-1.6-1.8-2.6c-3.6-12.5-11.9-21.5-22.3-28.8
							c-3.6-2.6-7.7-4.5-11.5-6.9c-1.1-0.7-2.2-1.4-2.9-2.4c-10.9-13-24-23-40.3-28.2c-13.2-4.2-26.7-5.2-40.5-3.6
							c-2.5,0.3-5,0.6-7.4,0.9c-0.4,0-0.7,0.2-1.3,0.4c5,0.5,9.8,0.9,14.5,1.6c13,1.9,25.4,5.3,36.3,13c9,6.3,15.2,14.7,18.3,25.3
							c0.7,2.2,0.6,4.2-1.3,5.7c-1.5,1.3-3.4,1.7-5.1,0.6c-1.2-0.8-2.1-2.2-2.7-3.5c-1.1-2.3-1.8-4.7-2.9-7.6
							c-2.1,2.5-4,4.5-5.7,6.6c-12,15-24.2,29.9-36,45c-8.2,10.6-15.8,21.6-24.1,32.2c-9.7,12.2-54.8,65.1-64.7,77.1
							c-1.4,1.7-0.1-0.2-2.6-0.9c-3.8-1-4.2-5.6-1.7-8.7c5.9-7,43.1-50.9,49-58c12.1-14.6,23.7-29.7,34.8-45.2
							c7.5-10.5,15.8-20.5,23.9-30.5c6.7-8.3,13.6-16.3,20.4-24.5C152.4,96.5,152.6,96.2,152.9,95.8z M205.9,266.5c0.3,0,0.7,0,1,0
							c1.1-3.5,2.4-7,3.4-10.5c0.8-2.6,2.2-4,4.7-4s4.2,1.3,4.8,3.8c0.5,2.2,0.9,4.4,1.3,6.6c0.1,0.7,0.2,1.3,0.4,2
							c0.1,0.6,0.3,1.2,0.5,2.3c4.1-15.3,7.7-30.1,14.1-44.3c-11.6-1.8-23-3.5-34.9-5.3C202.8,233.8,204.3,250.2,205.9,266.5z"/>
					</g>
				</g>
			</g>
		</g>
	</g>
	<g>
		<circle id="XMLID_00000155140242837417152470000013286601794743412652_" class="st5" cx="173" cy="173" r="166.6"/>
	</g>
</g>
</svg>
